<?xml version="1.0" encoding="utf-8"?>
<svg width="256" height="256" viewBox="80 385 75 75" xmlns="http://www.w3.org/2000/svg">
  <circle r="35" cx="117" cy="422" fill="royalblue"/>
  <path fill="white" d="M117.60,385.2a36.88,36.88,0,1,0,36.88,36.88A36.92,36.92,0,0,0,117.60,385.2Zm33.84,35.38H136.36a48.68,48.68,0,0,0-3.04-16.06,36.78,36.78,0,0,0,8.78-5.80A33.75,33.75,0,0,1,151.45,420.58Zm-32.34-31.07a36.53,36.53,0,0,1,6.06,6.38,39.46,39.46,0,0,1,4.17,7.02,33.84,33.84,0,0,1-10.24,2.06Zm3.53-.93a33.76,33.76,0,0,1,17.29,8.05,33.80,33.80,0,0,1-7.77,5.11A41.25,41.25,0,0,0,122.64,388.57ZM110.19,395.9a36.61,36.61,0,0,1,5.91-6.26v15.35a33.78,33.78,0,0,1-10.11-2.01A39.5,39.5,0,0,1,110.19,395.9Zm-7.01,5.90a33.8,33.8,0,0,1-7.9-5.17,33.75,33.75,0,0,1,17.46-8.07A41.24,41.24,0,0,0,103.17,401.80Zm12.92,6.18v12.6H102a45.60,45.60,0,0,1,2.83-14.83A36.83,36.83,0,0,0,116.10,407.99Zm0,15.6v12.38a36.8,36.8,0,0,0-11.01,2.14A42.37,42.37,0,0,1,102,423.58Zm0,15.38v15.25a47.10,47.10,0,0,1-9.79-13.36A33.81,33.81,0,0,1,116.10,438.97Zm-2.86,16.70a33.75,33.75,0,0,1-18.08-8.24,33.78,33.78,0,0,1,8.30-5.42A48.95,48.95,0,0,0,113.24,455.68Zm5.86-1.31v-15.4a33.8,33.8,0,0,1,9.92,1.94A47.08,47.08,0,0,1,119.10,454.36Zm12.76-12.29a33.84,33.84,0,0,1,8.18,5.36,33.75,33.75,0,0,1-17.90,8.21A48.88,48.88,0,0,0,131.86,442.07Zm-12.76-6.1V423.58h14.25a42.35,42.35,0,0,1-3.10,14.58A36.81,36.81,0,0,0,119.10,435.97Zm0-15.38v-12.6a36.80,36.80,0,0,0,11.4-2.29,45.56,45.56,0,0,1,2.85,14.88ZM93.11,398.71a36.8,36.8,0,0,0,8.91,5.87A48.7,48.7,0,0,0,99,420.58H83.76A33.75,33.75,0,0,1,93.11,398.71ZM83.76,423.58H99a45.67,45.67,0,0,0,3.25,15.68A36.80,36.80,0,0,0,93,445.35,33.75,33.75,0,0,1,83.76,423.58Zm58.44,21.76a36.8,36.8,0,0,0-9.12-6.02,45.69,45.69,0,0,0,3.27-15.74h15.08A33.75,33.75,0,0,1,142.20,445.35Z"/>
</svg>
